# xmcd
#
# Track frame offsets: 
#        150
#        14213
#        30690
#        44646
#        60403
#        83609
#        95822
#        119467
#        131496
#        140520
#        149863
#        174264
#
# Disc length: 2575 seconds
#
# Revision: 0
# Processed by: cddbd v1.5.2PL0 Copyright (c) Steve Scherf et al.
# Submitted via: ExactAudioCopy v0.99pb5
#
DISCID=b20a0d0c
DTITLE=United Blues Experience - Heart Blood Ballads
DYEAR=2010
DGENRE=Blues
TTITLE0=I Wanna Boogie
TTITLE1=Blinded By The Night
TTITLE2=Everybody's Dancing
TTITLE3=It's Too Late To Say Goddbye
TTITLE4=I'm Happy
TTITLE5=Givin' Me My Roots
TTITLE6=Beata's Blues
TTITLE7=It Took Me Years
TTITLE8=Anna's Song
TTITLE9=Let Me Be
TTITLE10=Stranger In My Own World
TTITLE11=Sarina
EXTD=
EXTT0=
EXTT1=
EXTT2=
EXTT3=
EXTT4=
EXTT5=
EXTT6=
EXTT7=
EXTT8=
EXTT9=
EXTT10=
EXTT11=
PLAYORDER=
